<svg width="25" height="24" viewBox="0 0 25 24" fill="none" xmlns="http://www.w3.org/2000/svg">
<path d="M12.5 2C7.813 2 4 5.813 4 10.5C4 12.518 4.7245 14.4765 6.0465 16.024C6.1975 16.1955 9.76 20.2435 10.95 21.378C11.3845 21.7925 11.942 22 12.5 22C13.058 22 13.6155 21.7925 14.0505 21.378C15.434 20.0585 18.8125 16.1855 18.9605 16.0155C20.2755 14.4765 21 12.518 21 10.5C21 5.813 17.187 2 12.5 2ZM12.5 13C11.1195 13 10 11.8805 10 10.5C10 9.1195 11.1195 8 12.5 8C13.8805 8 15 9.1195 15 10.5C15 11.8805 13.8805 13 12.5 13Z" fill="#637394"/>
</svg>
